Camelot S01E01 HDTV 720p ENG + NL Subs

Verenigde Staten / Canada / Engeland / Ierland ~ 50 minuten ~ geschreven door Michael Hirst & Chris Chibnall ~ met Jamie Campbell Bower, Tamsin Egerton en Joseph Fiennes

In de nasleep van het plotselinge overlijden van Koning Uther, dreigt chaos Britannia te overspoelen. Als de tovenaar Merlijn visioenen krijgt van een duistere toekomst, installeert hij de jonge Arthur op de troon: Uther’s onbekende zoon en erfgenaam die als een gewone boer is opgevoed. Arthur’s koude en ambitieuze halfzus Morgan is hier niet blij mee en zal hem tot het bittere einde bevechten. Zij zal niet schromen om onnatuurlijke krachten op te roepen om haar kansen op het bemachtigen van de kroon te versterken. Dit zijn donkere tijden voor de nieuwe koning, met alleen Guinevere als een baken van licht in Arthur’s harde wereld. Geconfronteerd met het nemen van diepe morele beslissingen, de uitdaging van het bijeenbrengen van een door oorlog verscheurde natie en omringd door misleiding en verraad, zal Arthur tot het uiterste getest worden.

Bestandsformaat: .MKV
Bestandsgrootte: 1,45 GB
Taal: Engels in DD5.1
Ondertitelingen: Engels en Nederlands ~ Nederlands custom door SuperOpa (in te stellen)
Categorie : Serie
Formaat : NVT
Bron : HDTV
Menu: Nee
Extra's: Nee
Genre : Drama ~ Fantasie
Weblink : http://www.imdb.com/title/tt1672189/

~~~~~~~~~~~~~~~~~~~~~~
USA / Canada / UK / Ireland ~ 50 minutes ~ written by Michael Hirst & Chris Chibnall ~ with Jamie Campbell Bower, Tamsin Egerton and Joseph Fiennes

England is threatened with chaos after the death of King Uther. The sorcerer Merlin sees visions of a future filled with darkness, and helps install Arthur, Uther's son -- raised from birth as a commoner -- as the new king. But Morgan, Arthur's half-sister, is determined to oppose her half-brother "to the bitter end," using "unnatural forces to claim the crown" in an "epic battle for control. During this time, Guinevere is the only "shining light" in an otherwise dark world facing Arthur. He must unite a kingdom split apart by war and "steeped in deception," all the time tested by "profound moral decisions" and enemies of all kinds

File Format: .MKV
File size: 1.45 GB
Language: English in DD5.1
Subtitles: English and Dutch ~ both custom (selectable)
Category : Series
Format : -
Source : HDTV
Menu: No
Extras: No
Genre : Drama ~ Fantasy
Weblink : http://www.imdb.com/title/tt1672189/

Video and audio information:
~~~~~~~~~~~~~~~~~~~~~~
Video
ID                               : 1
Format                           : AVC
Format/Info                      : Advanced Video Codec
Format profile                   : High@L3.1
Format settings, CABAC           : Yes
Format settings, ReFrames        : 4 frames
Format settings, GOP             : M=4, N=9
Codec ID                         : V_MPEG4/ISO/AVC
Duration                         : 50mn 37s
Bit rate                         : 3 736 Kbps
Width                            : 1 280 pixels
Height                           : 720 pixels
Display aspect ratio             : 16:9
Frame rate                       : 23.976 fps
Color space                      : YUV
Chroma subsampling               : 4:2:0
Bit depth                        : 8 bits
Scan type                        : Progressive
Bits/(Pixel*Frame)               : 0.169
Stream size                      : 1.29 GiB (89%)
Writing library                  : x264 core 104 r1703 cd21d05
Encoding settings                : cabac=1 / ref=3 / deblock=1:-2:-1 / analyse=0x3:0x113 / me=umh / subme=8 / psy=1 / psy_rd=1.00:0.00 / mixed_ref=0 / me_range=16 / chroma_me=1 / trellis=1 / 8x8dct=1 / cqm=0 / deadzone=21,11 / fast_pskip=1 / chroma_qp_offset=-2 / threads=20 / sliced_threads=0 / nr=0 / decimate=1 / interlaced=0 / constrained_intra=0 / bframes=3 / b_pyramid=2 / b_adapt=1 / b_bias=0 / direct=1 / weightb=1 / open_gop=0 / weightp=2 / keyint=250 / keyint_min=23 / scenecut=40 / intra_refresh=0 / rc_lookahead=40 / rc=2pass / mbtree=1 / bitrate=3736 / ratetol=1.0 / qcomp=0.60 / qpmin=10 / qpmax=51 / qpstep=4 / cplxblur=20.0 / qblur=0.5 / ip_ratio=1.40 / aq=1:1.00
Language                         : English

Audio
ID                               : 2
Format                           : AC-3
Format/Info                      : Audio Coding 3
Mode extension                   : CM (complete main)
Codec ID                         : A_AC3
Duration                         : 50mn 37s
Bit rate mode                    : Constant
Bit rate                         : 384 Kbps
Channel(s)                       : 6 channels
Channel positions                : Front: L C R, Side: L R, LFE
Sampling rate                    : 48.0 KHz
Bit depth                        : 16 bits
Compression mode                 : Lossy
Stream size                      : 139 MiB (9%)

~~~~~~~~~~~~~~~
Hornigold TBS
~~~~~~~~~~~~~~~